<svg xmlns="http://www.w3.org/2000/svg" width="27" height="11" viewBox="0 0 27 11">
  <metadata><?xpacket begin="﻿" id="W5M0MpCehiHzreSzNTczkc9d"?>
<x:xmpmeta xmlns:x="adobe:ns:meta/" x:xmptk="Adobe XMP Core 5.6-c142 79.160924, 2017/07/13-01:06:39        ">
   <rdf:RDF xmlns:rdf="http://www.w3.org/1999/02/22-rdf-syntax-ns#">
      <rdf:Description rdf:about=""/>
   </rdf:RDF>
</x:xmpmeta>
                                                                                                    
                                                                                                    
                                                                                                    
                                                                                                    
                                                                                                    
                                                                                                    
                                                                                                    
                                                                                                    
                                                                                                    
                                                                                                    
                                                                                                    
                                                                                                    
                                                                                                    
                                                                                                    
                                                                                                    
                                                                                                    
                                                                                                    
                                                                                                    
                                                                                                    
                                                                                                    
                           
<?xpacket end="w"?></metadata>
<defs>
    <style>
      .cls-1 {
        fill: #fff;
        fill-rule: evenodd;
      }
    </style>
  </defs>
  <path id="star" class="cls-1" d="M211.708,378L208,375.4l-3.708,2.6,1.416-4.2L202,371.2h4.584L208,367l1.416,4.2H214l-3.708,2.6,1.416,4.2h0ZM208,374.831l2.794,1.957-1.067-3.166,2.794-1.957h-3.454L208,368.5l-1.067,3.167h-3.454l2.794,1.957-1.067,3.166L208,374.831h0ZM226.708,378L223,375.4l-3.708,2.6,1.416-4.2L217,371.2h4.584L223,367l1.416,4.2H229l-3.708,2.6,1.416,4.2h0ZM223,374.831l2.794,1.957-1.067-3.166,2.794-1.957h-3.454L223,368.5l-1.067,3.167h-3.454l2.794,1.957-1.067,3.166L223,374.831h0Z" transform="translate(-202 -367)"/>
</svg>
